<?xml version="1.0" encoding="UTF-8"?>
<svg id="Layer_1" data-name="Layer 1" xmlns="http://www.w3.org/2000/svg" viewBox="0 0 129.83 144.24">
  <defs>
    <style>
      .cls-1 {
        fill: #00e35b;
        stroke-width: 0px;
      }
    </style>
  </defs>
  <path class="cls-1" d="M66.46,103.81l.78-1.95,2.54-2.83c1.3-2.15,2.38-3.42,3.23-3.81.13-.52.32-1.01.59-1.46.26-.45.45-1.17.59-2.15l.88-1.56c.26-.26.39-.45.39-.59s-.26-.52-.78-1.17l-.49-2.05c0-.52-1.73-2.25-5.18-5.18h-.78l-7.04-3.42-.39-.98-.78-.2-.98.39h-.2l-3.32-.98c-2.67-.72-4.43-1.27-5.28-1.66-.13.13-.33.2-.59.2l-3.91-.88c-1.11-.26-1.78-.54-2-.83-.23-.29-.78-.59-1.66-.88-.88-.29-1.45-.57-1.71-.83-.26-.26-.78-.39-1.56-.39l-2.44.59c0-.2-.91-.52-2.74-.98-.26-.65-.46-.98-.59-.98l-2.83.39c-1.89-.91-2.87-1.37-2.93-1.37-.33,0-1.47-.18-3.42-.54-1.95-.36-3.22-.73-3.81-1.12s-1.46-.78-2.64-1.17l-.59-.59c-.13-.13-.49-.26-1.07-.39h-1.76c-.39,0-.93-.33-1.61-.98-.68-.65-1.56-1.3-2.64-1.95-1.07-.65-2.02-1.68-2.83-3.08-.81-1.4-1.25-2.82-1.32-4.25-.13-.13-.2-.26-.2-.39l.59-3.12c.59-3.97,2.44-7.65,5.57-11.04.52-1.76,1.6-3.03,3.22-3.81l.39-1.37c1.89-1.63,3.24-2.93,4.05-3.91s1.74-1.77,2.78-2.39c1.04-.62,1.86-1.19,2.44-1.71l1.77-.78c-.07-.59,1.38-1.97,4.35-4.15,2.97-2.18,5.28-3.61,6.94-4.3s2.77-1.19,3.32-1.51c.55-.33,2.16-.81,4.83-1.46.65-1.76,1.69-2.64,3.12-2.64h1.46l1.95-1.95,2.64.2c.13-.13.49-.54,1.07-1.22s1.56-1.03,2.93-1.03l11.82-3.61h.78l.78.2c.52,0,1.19-.45,2-1.37.81-.91,1.87-1.37,3.17-1.37.26,0,.75.26,1.46.78,0,.13.06.2.2.2l2.54-.78,3.03.2,3.81-.98c2.41,0,4.52.59,6.35,1.76l.2-.39v-.59c0-1.11.62-1.66,1.86-1.66.52,0,.85.13.98.39l1.17.68h.68c.13,0,.98.39,2.54,1.17.98-.65,1.59-.98,1.86-.98,1.24,0,2.21.52,2.93,1.56l1.66-.2c.52-.52.85-.78.98-.78.39,0,.91.52,1.56,1.56l.59.2h2.44c.13,0,.39.2.78.59l1.07.88c.52.52.88.94,1.07,1.27.2.33.42.62.68.88,1.69-.72,2.6-1.07,2.73-1.07.65,0,1.14.55,1.46,1.66,0,.91.57,1.81,1.71,2.69,1.14.88,1.71,1.81,1.71,2.78,1.43.65,2.15,1.69,2.15,3.12l1.86,4.79-.39,1.66c.52,1.04.78,1.63.78,1.76l-.39,3.61.39,3.81c0,2.02-.94,3.74-2.83,5.18-.39,0-1.03.28-1.9.83-.88.55-1.38.83-1.51.83-1.69,0-2.82-.41-3.37-1.22-.55-.81-1.09-1.42-1.61-1.81-.52-.39-.78-.91-.78-1.56,0-1.5,1.01-2.96,3.03-4.39.91,0,1.56-.29,1.95-.88,0-1.37-.29-2.31-.88-2.83-.59-.52-1.22-1.24-1.9-2.15-.68-.91-1.42-1.64-2.2-2.2-.78-.55-1.42-1.25-1.9-2.1-.49-.85-.93-1.27-1.32-1.27l-1.37.2-2.83-.59c-3-.39-5.73-1.07-8.2-2.05h-1.95l-5.27-.78c-.91.39-2.21.59-3.91.59l-6.45.98-2.64-.2c-.2,0-1.99.55-5.37,1.66l-.98.2h-2.64c-.13,0-.96.33-2.49.98-1.53.65-2.82,1.11-3.86,1.37l-.88.39c-.13.13-.33.2-.59.2l-1.56-.2-8.59,4.2-1.37-.78c-1.11-.52-1.73-.78-1.86-.78-.91,0-1.37.46-1.37,1.37l-.2,1.86c-.85.52-1.4.91-1.66,1.17-.26.26-.59.46-.98.59h-1.17c-.78,0-1.51.34-2.2,1.03s-1.29,1.06-1.81,1.12c-.52.07-1.27.36-2.25.88-.13.26-.65.52-1.56.78-.91.26-1.61.86-2.1,1.81-.49.94-1.06,1.42-1.71,1.42l-1.95-.39-1.07,1.95c-1.37.33-2.15.52-2.34.59-.85,1.11-1.69,1.95-2.54,2.54-.85.59-1.68,1.22-2.49,1.9-.81.68-1.4,1.38-1.76,2.1-.36.72-.9,1.29-1.61,1.71-.72.42-1.33,1.29-1.86,2.59l-.98.98c-1.63,1.37-2.44,2.83-2.44,4.39,0,1.11.78,1.92,2.34,2.44,1.56.52,2.54.94,2.93,1.27.39.33.98.49,1.76.49s1.53.16,2.25.49c.72.33,1.92.85,3.61,1.56.33,1.04.65,1.56.98,1.56.13,0,.39-.26.78-.78.39-.52.97-.78,1.76-.78.85,0,1.66.52,2.44,1.56l.78-.59h.39l1.27.39h.2l1.17-.59c.13-.13.33-.2.58-.2.2,0,1.2.33,3.03.98h.2c.13,0,.65-.13,1.56-.39.98.26,1.53.46,1.66.59l1.37.78c0,.2.13.29.39.29s.65-.15,1.17-.44c.52-.29,1.01-.44,1.46-.44.52,0,1.11.36,1.76,1.07,1.04-.45,1.63-.68,1.76-.68.58,0,1.59.49,3.03,1.46l1.85.39h2.15l3.22.59c.91.98,1.85,1.73,2.83,2.25.13-.72.59-1.07,1.37-1.07,1.04,0,2.63.42,4.78,1.27l.78.2.78.59c1.11-.26,1.79-.39,2.05-.39,1.3,0,1.95.46,1.95,1.37,0,.78-.2,1.79-.59,3.03.13,0,.32.13.59.39.32-.39.68-.65,1.07-.78l1.56-.88c.26-.26.46-.39.59-.39,1.5,0,3.61,1.04,6.35,3.12,2.73,2.08,4.3,4.46,4.69,7.13,0,.78.26,1.69.78,2.73l-.39,1.27.2,1.56c0,.13-.13.59-.39,1.37l-.2,1.46c-.13.26-.33.49-.59.68-.26.2-.46.42-.59.68l.59,1.66v.39c0,.26-.24.62-.73,1.07-.49.46-.8.88-.93,1.27-.13.39-.36.8-.68,1.22-.33.42-.55.93-.68,1.51-.13.59-.77,1.25-1.9,2-1.14.75-1.71,1.32-1.71,1.71s.13.59.39.59c.78,0,1.61-.37,2.49-1.12.88-.75,1.54-1.19,2-1.32.46-.13,1.23-.52,2.34-1.17l9.17-4.3c6.83-3.25,10.63-4.88,11.41-4.88,1.04,0,1.56.52,1.56,1.56,0,.39-.46,1.14-1.37,2.25-.13,3.06-1.46,4.85-4,5.37-.98.65-1.73,1.33-2.24,2.05h-.78c-1.63,1.82-3.48,2.73-5.57,2.73h-.59c-2.41,2.41-5.34,3.74-8.79,4-2.28,2.28-4.17,3.42-5.66,3.42l-1.56.39c-1.63.65-2.77.98-3.42.98-.13,0-.39.26-.78.78l-1.46,1.07c-1.24.26-2.57.98-4,2.15-1.43,1.17-2.52,1.84-3.27,2-.75.16-1.55.44-2.39.83-.85.39-4.26,2.6-10.25,6.64l-1.27.39c-2.54,1.17-4.13,2.13-4.79,2.88-.65.75-1.43,1.38-2.34,1.9h-.39c-1.5,0-3.26.98-5.27,2.93-.13.33-1.55.86-4.25,1.61-2.7.75-5.29,1.9-7.76,3.47-1.56.39-3.48.91-5.76,1.56-2.28.65-3.94,1.04-4.98,1.17l-6.83,1.46c-1.5.26-3.22.65-5.18,1.17-1.17-.39-2.18-.59-3.03-.59l-1.76.2c-.26,0-.67-.23-1.22-.68-.55-.46-1.29-.9-2.2-1.32-.91-.42-1.37-1.55-1.37-3.37,0-1.63,1.79-3.24,5.38-4.83,3.58-1.59,5.93-2.72,7.04-3.37.52-.72,1.42-1.14,2.69-1.27,1.27-.13,2.36-.52,3.27-1.17.91-.65,2.31-1.24,4.2-1.76l3.91-2.05c.2-.13.36-.2.49-.2h1.37c.46,0,1.14-.36,2.05-1.07.91-.72,1.86-1.24,2.83-1.56h1.17c.13,0,.33-.16.59-.49.26-.33.85-.75,1.76-1.27l.29-.2h.98c.72-.59,1.56-1.07,2.54-1.46.98-.39,1.92-.91,2.83-1.56l7.62-2.93,1.76.2c.39,0,.89-.31,1.51-.93.62-.62,2.07-1.25,4.35-1.9.33-.52,1.01-1.14,2.05-1.86,1.04-.72,2.28-1.76,3.71-3.12l2.05-1.86ZM32.39,128.22l-1.37-.2c-.92.52-1.81.81-2.69.88-.88.07-2.25.67-4.11,1.81-1.86,1.14-4,2.23-6.41,3.27-2.41,1.04-3.62,1.73-3.62,2.05,3.2-.39,6.53-1.27,9.98-2.64l7.05-1.95c.91-.26,1.55-.52,1.91-.78.36-.26,1.06-.62,2.1-1.07l1.57-1.17c.32-.13,1.04-.39,2.15-.78,1.11-.39,1.67-.78,1.67-1.17,0-.26-.13-.39-.39-.39-2.35,0-4.21.36-5.58,1.07-1.37.72-2.12,1.07-2.25,1.07Z"/>
</svg>